<mxfile host="app.diagrams.net" modified="2024-05-21T14:59:10.474Z" agent="Mozilla/5.0 (Windows NT 10.0; Win64; x64) AppleWebKit/537.36 (KHTML, like Gecko) Chrome/123.0.0.0 Safari/537.36 OPR/109.0.0.0" etag="S-AlXSFR5u5lhTPG5P-L" version="24.4.4" type="github">
  <diagram name="Page-1" id="h5aksXaJnUs9Fdjf6erM">
    <mxGraphModel dx="939" dy="380" grid="1" gridSize="10" guides="1" tooltips="1" connect="1" arrows="1" fold="1" page="1" pageScale="1" pageWidth="850" pageHeight="1100" math="0" shadow="0">
      <root>
        <mxCell id="0" />
        <mxCell id="1" parent="0" />
        <mxCell id="bBLoMzVvPR5Ov2TjYOQF-40" value="" style="rounded=1;whiteSpace=wrap;html=1;fillColor=#8CE8FF;" vertex="1" parent="1">
          <mxGeometry x="1240" y="235" width="190" height="85" as="geometry" />
        </mxCell>
        <mxCell id="2pWZLFfLy7mP2aZDHN8V-2" value="" style="rounded=1;whiteSpace=wrap;html=1;" parent="1" vertex="1">
          <mxGeometry x="590" y="45" width="230" height="380" as="geometry" />
        </mxCell>
        <mxCell id="2pWZLFfLy7mP2aZDHN8V-3" value="" style="rounded=1;whiteSpace=wrap;html=1;" parent="1" vertex="1">
          <mxGeometry x="610" y="550" width="230" height="380" as="geometry" />
        </mxCell>
        <mxCell id="2pWZLFfLy7mP2aZDHN8V-5" value="" style="rounded=0;whiteSpace=wrap;html=1;fillColor=#FFFFFF;" parent="1" vertex="1">
          <mxGeometry x="610" y="65" width="190" height="340" as="geometry" />
        </mxCell>
        <mxCell id="2pWZLFfLy7mP2aZDHN8V-6" value="" style="rounded=0;whiteSpace=wrap;html=1;fillColor=#FFFFFF;" parent="1" vertex="1">
          <mxGeometry x="630" y="570" width="190" height="340" as="geometry" />
        </mxCell>
        <mxCell id="2pWZLFfLy7mP2aZDHN8V-15" value="" style="rounded=1;whiteSpace=wrap;html=1;" parent="1" vertex="1">
          <mxGeometry x="40" y="40" width="230" height="380" as="geometry" />
        </mxCell>
        <mxCell id="2pWZLFfLy7mP2aZDHN8V-16" value="" style="rounded=0;whiteSpace=wrap;html=1;fillColor=#FFFFFF;" parent="1" vertex="1">
          <mxGeometry x="60" y="55" width="190" height="340" as="geometry" />
        </mxCell>
        <mxCell id="2pWZLFfLy7mP2aZDHN8V-18" value="&lt;font style=&quot;font-size: 18px;&quot;&gt;Der Logo&lt;/font&gt;" style="text;html=1;align=center;verticalAlign=middle;whiteSpace=wrap;rounded=0;" parent="1" vertex="1">
          <mxGeometry x="101.25" y="75" width="107.5" height="70" as="geometry" />
        </mxCell>
        <mxCell id="2pWZLFfLy7mP2aZDHN8V-19" value="Login With Username" style="rounded=1;whiteSpace=wrap;html=1;" parent="1" vertex="1">
          <mxGeometry x="80" y="225" width="150" height="20" as="geometry" />
        </mxCell>
        <mxCell id="2pWZLFfLy7mP2aZDHN8V-20" value="Login with QR Code" style="rounded=1;whiteSpace=wrap;html=1;" parent="1" vertex="1">
          <mxGeometry x="80" y="285" width="150" height="20" as="geometry" />
        </mxCell>
        <mxCell id="2pWZLFfLy7mP2aZDHN8V-22" value="Scan The QR Code" style="text;html=1;align=center;verticalAlign=middle;whiteSpace=wrap;rounded=0;" parent="1" vertex="1">
          <mxGeometry x="645" y="105" width="120" height="50" as="geometry" />
        </mxCell>
        <mxCell id="2pWZLFfLy7mP2aZDHN8V-23" value="" style="shape=image;html=1;verticalAlign=top;verticalLabelPosition=bottom;labelBackgroundColor=#ffffff;imageAspect=0;aspect=fixed;image=https://cdn1.iconfinder.com/data/icons/systemui/21/capture-128.png" parent="1" vertex="1">
          <mxGeometry x="613" y="165" width="187" height="187" as="geometry" />
        </mxCell>
        <mxCell id="2pWZLFfLy7mP2aZDHN8V-36" style="edgeStyle=orthogonalEdgeStyle;rounded=0;orthogonalLoop=1;jettySize=auto;html=1;exitX=0;exitY=0;exitDx=0;exitDy=0;" parent="1" edge="1">
          <mxGeometry relative="1" as="geometry">
            <mxPoint x="337.49666666666695" y="554.666666666667" as="targetPoint" />
            <mxPoint x="337.83" y="555" as="sourcePoint" />
          </mxGeometry>
        </mxCell>
        <mxCell id="2pWZLFfLy7mP2aZDHN8V-28" value="" style="rounded=1;whiteSpace=wrap;html=1;" parent="1" vertex="1">
          <mxGeometry x="50" y="550" width="230" height="380" as="geometry" />
        </mxCell>
        <mxCell id="2pWZLFfLy7mP2aZDHN8V-29" value="" style="rounded=0;whiteSpace=wrap;html=1;fillColor=#FFFFFF;" parent="1" vertex="1">
          <mxGeometry x="70" y="570" width="190" height="340" as="geometry" />
        </mxCell>
        <mxCell id="2pWZLFfLy7mP2aZDHN8V-30" value="&lt;font style=&quot;font-size: 18px;&quot;&gt;Der Logo&lt;/font&gt;" style="text;html=1;align=center;verticalAlign=middle;whiteSpace=wrap;rounded=0;" parent="1" vertex="1">
          <mxGeometry x="111.25" y="590" width="107.5" height="70" as="geometry" />
        </mxCell>
        <mxCell id="2pWZLFfLy7mP2aZDHN8V-31" value="" style="rounded=1;whiteSpace=wrap;html=1;" parent="1" vertex="1">
          <mxGeometry x="90" y="735" width="150" height="20" as="geometry" />
        </mxCell>
        <mxCell id="2pWZLFfLy7mP2aZDHN8V-32" value="" style="rounded=1;whiteSpace=wrap;html=1;" parent="1" vertex="1">
          <mxGeometry x="90" y="800" width="150" height="20" as="geometry" />
        </mxCell>
        <mxCell id="2pWZLFfLy7mP2aZDHN8V-33" value="Username" style="text;html=1;align=center;verticalAlign=middle;whiteSpace=wrap;rounded=0;" parent="1" vertex="1">
          <mxGeometry x="90" y="700" width="60" height="30" as="geometry" />
        </mxCell>
        <mxCell id="2pWZLFfLy7mP2aZDHN8V-34" value="Password" style="text;html=1;align=center;verticalAlign=middle;whiteSpace=wrap;rounded=0;" parent="1" vertex="1">
          <mxGeometry x="90" y="760" width="60" height="30" as="geometry" />
        </mxCell>
        <mxCell id="2pWZLFfLy7mP2aZDHN8V-37" value="Data not found!" style="text;html=1;align=center;verticalAlign=middle;whiteSpace=wrap;rounded=0;fillColor=#FF9999;" parent="1" vertex="1">
          <mxGeometry x="90" y="660" width="150" height="30" as="geometry" />
        </mxCell>
        <mxCell id="2pWZLFfLy7mP2aZDHN8V-40" value="Login" style="rounded=0;whiteSpace=wrap;html=1;" parent="1" vertex="1">
          <mxGeometry x="103.75" y="838.5" width="115" height="30" as="geometry" />
        </mxCell>
        <mxCell id="2pWZLFfLy7mP2aZDHN8V-41" value="" style="rounded=1;whiteSpace=wrap;html=1;" parent="1" vertex="1">
          <mxGeometry x="337.83" y="550" width="230" height="380" as="geometry" />
        </mxCell>
        <mxCell id="2pWZLFfLy7mP2aZDHN8V-42" value="" style="rounded=0;whiteSpace=wrap;html=1;fillColor=#FFFFFF;" parent="1" vertex="1">
          <mxGeometry x="357.83" y="570" width="190" height="340" as="geometry" />
        </mxCell>
        <mxCell id="2pWZLFfLy7mP2aZDHN8V-43" value="&lt;font style=&quot;font-size: 14px;&quot;&gt;Scan The QR Code&lt;/font&gt;" style="text;html=1;align=center;verticalAlign=middle;whiteSpace=wrap;rounded=0;" parent="1" vertex="1">
          <mxGeometry x="385.33" y="595" width="135" height="50" as="geometry" />
        </mxCell>
        <mxCell id="2pWZLFfLy7mP2aZDHN8V-45" value="Data not found!" style="text;html=1;align=center;verticalAlign=middle;whiteSpace=wrap;rounded=0;fillColor=#FF9999;" parent="1" vertex="1">
          <mxGeometry x="372.17" y="655" width="167.83" height="45" as="geometry" />
        </mxCell>
        <mxCell id="2pWZLFfLy7mP2aZDHN8V-46" value="Choose Your Login Option" style="text;html=1;align=center;verticalAlign=middle;whiteSpace=wrap;rounded=0;" parent="1" vertex="1">
          <mxGeometry x="75" y="172" width="160" height="40" as="geometry" />
        </mxCell>
        <mxCell id="2pWZLFfLy7mP2aZDHN8V-60" value="" style="shape=image;html=1;verticalAlign=top;verticalLabelPosition=bottom;labelBackgroundColor=#ffffff;imageAspect=0;aspect=fixed;image=https://cdn3.iconfinder.com/data/icons/arrows-set-12/512/leftlinearrow-128.png" parent="1" vertex="1">
          <mxGeometry x="71.25" y="570" width="30" height="30" as="geometry" />
        </mxCell>
        <mxCell id="2pWZLFfLy7mP2aZDHN8V-61" value="" style="shape=image;html=1;verticalAlign=top;verticalLabelPosition=bottom;labelBackgroundColor=#ffffff;imageAspect=0;aspect=fixed;image=https://cdn3.iconfinder.com/data/icons/arrows-set-12/512/leftlinearrow-128.png" parent="1" vertex="1">
          <mxGeometry x="360.83" y="575" width="30" height="30" as="geometry" />
        </mxCell>
        <mxCell id="2pWZLFfLy7mP2aZDHN8V-62" value="&lt;u&gt;&lt;font style=&quot;font-size: 8px;&quot;&gt;Use other option?&lt;/font&gt;&lt;/u&gt;" style="text;html=1;align=center;verticalAlign=middle;whiteSpace=wrap;rounded=0;" parent="1" vertex="1">
          <mxGeometry x="80" y="880" width="170" height="30" as="geometry" />
        </mxCell>
        <mxCell id="2pWZLFfLy7mP2aZDHN8V-63" value="" style="rounded=1;whiteSpace=wrap;html=1;" parent="1" vertex="1">
          <mxGeometry x="310" y="40" width="230" height="380" as="geometry" />
        </mxCell>
        <mxCell id="2pWZLFfLy7mP2aZDHN8V-64" value="" style="rounded=0;whiteSpace=wrap;html=1;fillColor=#FFFFFF;" parent="1" vertex="1">
          <mxGeometry x="330" y="60" width="190" height="340" as="geometry" />
        </mxCell>
        <mxCell id="2pWZLFfLy7mP2aZDHN8V-65" value="&lt;font style=&quot;font-size: 18px;&quot;&gt;Der Logo&lt;/font&gt;" style="text;html=1;align=center;verticalAlign=middle;whiteSpace=wrap;rounded=0;" parent="1" vertex="1">
          <mxGeometry x="371.25" y="80" width="107.5" height="70" as="geometry" />
        </mxCell>
        <mxCell id="2pWZLFfLy7mP2aZDHN8V-66" value="" style="rounded=1;whiteSpace=wrap;html=1;" parent="1" vertex="1">
          <mxGeometry x="350" y="225" width="150" height="20" as="geometry" />
        </mxCell>
        <mxCell id="2pWZLFfLy7mP2aZDHN8V-67" value="" style="rounded=1;whiteSpace=wrap;html=1;" parent="1" vertex="1">
          <mxGeometry x="350" y="290" width="150" height="20" as="geometry" />
        </mxCell>
        <mxCell id="2pWZLFfLy7mP2aZDHN8V-68" value="Username" style="text;html=1;align=center;verticalAlign=middle;whiteSpace=wrap;rounded=0;" parent="1" vertex="1">
          <mxGeometry x="350" y="190" width="60" height="30" as="geometry" />
        </mxCell>
        <mxCell id="2pWZLFfLy7mP2aZDHN8V-69" value="Password" style="text;html=1;align=center;verticalAlign=middle;whiteSpace=wrap;rounded=0;" parent="1" vertex="1">
          <mxGeometry x="350" y="250" width="60" height="30" as="geometry" />
        </mxCell>
        <mxCell id="2pWZLFfLy7mP2aZDHN8V-71" value="Login" style="rounded=0;whiteSpace=wrap;html=1;" parent="1" vertex="1">
          <mxGeometry x="363.75" y="328.5" width="115" height="30" as="geometry" />
        </mxCell>
        <mxCell id="2pWZLFfLy7mP2aZDHN8V-72" value="" style="shape=image;html=1;verticalAlign=top;verticalLabelPosition=bottom;labelBackgroundColor=#ffffff;imageAspect=0;aspect=fixed;image=https://cdn3.iconfinder.com/data/icons/arrows-set-12/512/leftlinearrow-128.png" parent="1" vertex="1">
          <mxGeometry x="331.25" y="60" width="30" height="30" as="geometry" />
        </mxCell>
        <mxCell id="2pWZLFfLy7mP2aZDHN8V-73" value="&lt;u&gt;&lt;font style=&quot;font-size: 8px;&quot;&gt;Use other option?&lt;/font&gt;&lt;/u&gt;" style="text;html=1;align=center;verticalAlign=middle;whiteSpace=wrap;rounded=0;" parent="1" vertex="1">
          <mxGeometry x="340" y="370" width="170" height="30" as="geometry" />
        </mxCell>
        <mxCell id="2pWZLFfLy7mP2aZDHN8V-74" value="&lt;u&gt;&lt;font style=&quot;font-size: 14px;&quot;&gt;Use other option?&lt;/font&gt;&lt;/u&gt;" style="text;html=1;align=center;verticalAlign=middle;whiteSpace=wrap;rounded=0;" parent="1" vertex="1">
          <mxGeometry x="387.83" y="802" width="129" height="23" as="geometry" />
        </mxCell>
        <mxCell id="2pWZLFfLy7mP2aZDHN8V-88" value="Presence Page" style="text;html=1;align=center;verticalAlign=middle;whiteSpace=wrap;rounded=0;" parent="1" vertex="1">
          <mxGeometry x="630" y="570" width="190" height="30" as="geometry" />
        </mxCell>
        <mxCell id="2pWZLFfLy7mP2aZDHN8V-90" value="" style="rounded=0;whiteSpace=wrap;html=1;fillColor=#2448FF;" parent="1" vertex="1">
          <mxGeometry x="630" y="595" width="190" height="60" as="geometry" />
        </mxCell>
        <mxCell id="2pWZLFfLy7mP2aZDHN8V-91" value="Welcome, &lt;br&gt;Hector Palma" style="text;html=1;align=center;verticalAlign=middle;whiteSpace=wrap;rounded=0;" parent="1" vertex="1">
          <mxGeometry x="710" y="597.5" width="100" height="55" as="geometry" />
        </mxCell>
        <mxCell id="2pWZLFfLy7mP2aZDHN8V-92" value="" style="html=1;verticalLabelPosition=bottom;align=center;labelBackgroundColor=#ffffff;verticalAlign=top;strokeWidth=2;strokeColor=#0080F0;shadow=0;dashed=0;shape=mxgraph.ios7.icons.user;" parent="1" vertex="1">
          <mxGeometry x="640" y="602.5" width="50" height="50" as="geometry" />
        </mxCell>
        <mxCell id="2pWZLFfLy7mP2aZDHN8V-93" value="" style="shape=image;html=1;verticalAlign=top;verticalLabelPosition=bottom;labelBackgroundColor=#ffffff;imageAspect=0;aspect=fixed;image=https://cdn3.iconfinder.com/data/icons/arrows-set-12/512/leftlinearrow-128.png" parent="1" vertex="1">
          <mxGeometry x="613" y="67.5" width="30" height="30" as="geometry" />
        </mxCell>
        <mxCell id="2pWZLFfLy7mP2aZDHN8V-95" value="Presence" style="rounded=1;whiteSpace=wrap;html=1;" parent="1" vertex="1">
          <mxGeometry x="645" y="690" width="160" height="27" as="geometry" />
        </mxCell>
        <mxCell id="2pWZLFfLy7mP2aZDHN8V-96" value="&lt;u&gt;&lt;font style=&quot;font-size: 8px;&quot;&gt;Use other option?&lt;/font&gt;&lt;/u&gt;" style="text;html=1;align=center;verticalAlign=middle;whiteSpace=wrap;rounded=0;" parent="1" vertex="1">
          <mxGeometry x="620" y="373.5" width="170" height="30" as="geometry" />
        </mxCell>
        <mxCell id="2pWZLFfLy7mP2aZDHN8V-97" value="&lt;u&gt;&lt;font style=&quot;font-size: 14px;&quot;&gt;Capture Again?&lt;/font&gt;&lt;/u&gt;" style="text;html=1;align=center;verticalAlign=middle;whiteSpace=wrap;rounded=0;" parent="1" vertex="1">
          <mxGeometry x="365.08" y="749.25" width="175.5" height="35.75" as="geometry" />
        </mxCell>
        <mxCell id="2pWZLFfLy7mP2aZDHN8V-100" value="Welcome!" style="text;html=1;align=center;verticalAlign=middle;whiteSpace=wrap;rounded=0;" parent="1" vertex="1">
          <mxGeometry x="80" y="155" width="150" height="30" as="geometry" />
        </mxCell>
        <mxCell id="2pWZLFfLy7mP2aZDHN8V-112" value="Permission" style="rounded=1;whiteSpace=wrap;html=1;" parent="1" vertex="1">
          <mxGeometry x="645" y="743" width="160" height="27" as="geometry" />
        </mxCell>
        <mxCell id="bBLoMzVvPR5Ov2TjYOQF-10" value="" style="rounded=1;whiteSpace=wrap;html=1;" vertex="1" parent="1">
          <mxGeometry x="950" y="45" width="230" height="380" as="geometry" />
        </mxCell>
        <mxCell id="bBLoMzVvPR5Ov2TjYOQF-11" value="" style="rounded=0;whiteSpace=wrap;html=1;fillColor=#FFFFFF;" vertex="1" parent="1">
          <mxGeometry x="970" y="65" width="190" height="340" as="geometry" />
        </mxCell>
        <mxCell id="bBLoMzVvPR5Ov2TjYOQF-12" value="Presence Page" style="text;html=1;align=center;verticalAlign=middle;whiteSpace=wrap;rounded=0;" vertex="1" parent="1">
          <mxGeometry x="970" y="65" width="190" height="30" as="geometry" />
        </mxCell>
        <mxCell id="bBLoMzVvPR5Ov2TjYOQF-13" value="" style="rounded=0;whiteSpace=wrap;html=1;fillColor=#0008FF;" vertex="1" parent="1">
          <mxGeometry x="970" y="90" width="190" height="60" as="geometry" />
        </mxCell>
        <mxCell id="bBLoMzVvPR5Ov2TjYOQF-14" value="Welcome, &lt;br&gt;Hector Palma" style="text;html=1;align=center;verticalAlign=middle;whiteSpace=wrap;rounded=0;" vertex="1" parent="1">
          <mxGeometry x="1050" y="92.5" width="100" height="55" as="geometry" />
        </mxCell>
        <mxCell id="bBLoMzVvPR5Ov2TjYOQF-15" value="" style="html=1;verticalLabelPosition=bottom;align=center;labelBackgroundColor=#ffffff;verticalAlign=top;strokeWidth=2;strokeColor=#0080F0;shadow=0;dashed=0;shape=mxgraph.ios7.icons.user;" vertex="1" parent="1">
          <mxGeometry x="980" y="97.5" width="50" height="50" as="geometry" />
        </mxCell>
        <mxCell id="bBLoMzVvPR5Ov2TjYOQF-16" value="Presence" style="rounded=1;whiteSpace=wrap;html=1;" vertex="1" parent="1">
          <mxGeometry x="985" y="185" width="160" height="27" as="geometry" />
        </mxCell>
        <mxCell id="bBLoMzVvPR5Ov2TjYOQF-17" value="Permission" style="rounded=1;whiteSpace=wrap;html=1;" vertex="1" parent="1">
          <mxGeometry x="985" y="258" width="160" height="27" as="geometry" />
        </mxCell>
        <mxCell id="bBLoMzVvPR5Ov2TjYOQF-18" value="" style="rounded=1;whiteSpace=wrap;html=1;" vertex="1" parent="1">
          <mxGeometry x="1220" y="45" width="230" height="380" as="geometry" />
        </mxCell>
        <mxCell id="bBLoMzVvPR5Ov2TjYOQF-19" value="" style="rounded=0;whiteSpace=wrap;html=1;fillColor=#FFFFFF;" vertex="1" parent="1">
          <mxGeometry x="1240" y="65" width="190" height="340" as="geometry" />
        </mxCell>
        <mxCell id="bBLoMzVvPR5Ov2TjYOQF-20" value="Presence Page" style="text;html=1;align=center;verticalAlign=middle;whiteSpace=wrap;rounded=0;" vertex="1" parent="1">
          <mxGeometry x="1240" y="65" width="190" height="30" as="geometry" />
        </mxCell>
        <mxCell id="bBLoMzVvPR5Ov2TjYOQF-21" value="" style="rounded=0;whiteSpace=wrap;html=1;fillColor=#2448FF;" vertex="1" parent="1">
          <mxGeometry x="1240" y="90" width="190" height="60" as="geometry" />
        </mxCell>
        <mxCell id="bBLoMzVvPR5Ov2TjYOQF-22" value="Welcome, &lt;br&gt;Hector Palma" style="text;html=1;align=center;verticalAlign=middle;whiteSpace=wrap;rounded=0;" vertex="1" parent="1">
          <mxGeometry x="1320" y="92.5" width="100" height="55" as="geometry" />
        </mxCell>
        <mxCell id="bBLoMzVvPR5Ov2TjYOQF-23" value="" style="html=1;verticalLabelPosition=bottom;align=center;labelBackgroundColor=#ffffff;verticalAlign=top;strokeWidth=2;strokeColor=#0080F0;shadow=0;dashed=0;shape=mxgraph.ios7.icons.user;" vertex="1" parent="1">
          <mxGeometry x="1250" y="97.5" width="50" height="50" as="geometry" />
        </mxCell>
        <mxCell id="bBLoMzVvPR5Ov2TjYOQF-26" value="" style="text;html=1;align=center;verticalAlign=middle;whiteSpace=wrap;rounded=0;fillColor=#725CFF;" vertex="1" parent="1">
          <mxGeometry x="1240" y="150" width="190" height="60" as="geometry" />
        </mxCell>
        <mxCell id="bBLoMzVvPR5Ov2TjYOQF-27" value="&lt;font style=&quot;font-size: 10px;&quot;&gt;10:30 AM 21/05/2024&lt;/font&gt;" style="text;html=1;align=center;verticalAlign=middle;whiteSpace=wrap;rounded=0;" vertex="1" parent="1">
          <mxGeometry x="1220" y="135" width="140" height="50" as="geometry" />
        </mxCell>
        <mxCell id="bBLoMzVvPR5Ov2TjYOQF-28" value="&lt;font style=&quot;font-size: 10px;&quot;&gt;You&amp;nbsp; made Presence!&lt;/font&gt;" style="text;html=1;align=center;verticalAlign=middle;whiteSpace=wrap;rounded=0;" vertex="1" parent="1">
          <mxGeometry x="1220" y="165" width="140" height="18" as="geometry" />
        </mxCell>
        <mxCell id="bBLoMzVvPR5Ov2TjYOQF-31" value="Shift: 13:30 -18:30" style="text;html=1;align=center;verticalAlign=middle;whiteSpace=wrap;rounded=0;" vertex="1" parent="1">
          <mxGeometry x="1235" y="179" width="110" height="30" as="geometry" />
        </mxCell>
        <mxCell id="bBLoMzVvPR5Ov2TjYOQF-35" value="This Month" style="text;html=1;align=center;verticalAlign=middle;whiteSpace=wrap;rounded=0;" vertex="1" parent="1">
          <mxGeometry x="1300" y="209" width="70" height="30" as="geometry" />
        </mxCell>
        <mxCell id="bBLoMzVvPR5Ov2TjYOQF-41" value="" style="rounded=0;whiteSpace=wrap;html=1;fillColor=#725CFF;" vertex="1" parent="1">
          <mxGeometry x="1240" y="230" width="190" height="70" as="geometry" />
        </mxCell>
        <mxCell id="bBLoMzVvPR5Ov2TjYOQF-32" value="" style="verticalLabelPosition=bottom;sketch=0;aspect=fixed;html=1;verticalAlign=top;strokeColor=none;align=center;outlineConnect=0;shape=mxgraph.citrix.calendar;" vertex="1" parent="1">
          <mxGeometry x="1250" y="230" width="30" height="40" as="geometry" />
        </mxCell>
        <mxCell id="bBLoMzVvPR5Ov2TjYOQF-36" value="19&lt;br&gt;Present" style="text;html=1;align=center;verticalAlign=middle;whiteSpace=wrap;rounded=0;" vertex="1" parent="1">
          <mxGeometry x="1240" y="270" width="60" height="30" as="geometry" />
        </mxCell>
        <mxCell id="bBLoMzVvPR5Ov2TjYOQF-38" value="21&lt;br&gt;Present" style="text;html=1;align=center;verticalAlign=middle;whiteSpace=wrap;rounded=0;" vertex="1" parent="1">
          <mxGeometry x="1370" y="270" width="60" height="30" as="geometry" />
        </mxCell>
        <mxCell id="bBLoMzVvPR5Ov2TjYOQF-33" value="" style="verticalLabelPosition=bottom;sketch=0;aspect=fixed;html=1;verticalAlign=top;strokeColor=none;align=center;outlineConnect=0;shape=mxgraph.citrix.calendar;" vertex="1" parent="1">
          <mxGeometry x="1385" y="230" width="30" height="40" as="geometry" />
        </mxCell>
        <mxCell id="bBLoMzVvPR5Ov2TjYOQF-34" value="" style="verticalLabelPosition=bottom;sketch=0;aspect=fixed;html=1;verticalAlign=top;strokeColor=none;align=center;outlineConnect=0;shape=mxgraph.citrix.calendar;" vertex="1" parent="1">
          <mxGeometry x="1320" y="230" width="30" height="40" as="geometry" />
        </mxCell>
        <mxCell id="bBLoMzVvPR5Ov2TjYOQF-37" value="20&lt;br&gt;Absent" style="text;html=1;align=center;verticalAlign=middle;whiteSpace=wrap;rounded=0;" vertex="1" parent="1">
          <mxGeometry x="1305" y="270" width="60" height="30" as="geometry" />
        </mxCell>
        <mxCell id="bBLoMzVvPR5Ov2TjYOQF-43" value="" style="ellipse;whiteSpace=wrap;html=1;aspect=fixed;fillColor=#FF6181;" vertex="1" parent="1">
          <mxGeometry x="1375.5" y="155" width="49" height="49" as="geometry" />
        </mxCell>
        <mxCell id="bBLoMzVvPR5Ov2TjYOQF-44" value="" style="ellipse;whiteSpace=wrap;html=1;aspect=fixed;" vertex="1" parent="1">
          <mxGeometry x="1377.5" y="157" width="45" height="45" as="geometry" />
        </mxCell>
        <mxCell id="bBLoMzVvPR5Ov2TjYOQF-45" value="Check&lt;br&gt;Out" style="text;html=1;align=center;verticalAlign=middle;whiteSpace=wrap;rounded=0;" vertex="1" parent="1">
          <mxGeometry x="1370" y="166" width="60" height="30" as="geometry" />
        </mxCell>
        <mxCell id="bBLoMzVvPR5Ov2TjYOQF-56" value="" style="rounded=1;whiteSpace=wrap;html=1;" vertex="1" parent="1">
          <mxGeometry x="880" y="530" width="230" height="380" as="geometry" />
        </mxCell>
        <mxCell id="bBLoMzVvPR5Ov2TjYOQF-57" value="" style="rounded=0;whiteSpace=wrap;html=1;fillColor=#FFFFFF;" vertex="1" parent="1">
          <mxGeometry x="900" y="550" width="190" height="340" as="geometry" />
        </mxCell>
        <mxCell id="bBLoMzVvPR5Ov2TjYOQF-58" value="Presence Page" style="text;html=1;align=center;verticalAlign=middle;whiteSpace=wrap;rounded=0;" vertex="1" parent="1">
          <mxGeometry x="900" y="550" width="190" height="30" as="geometry" />
        </mxCell>
        <mxCell id="bBLoMzVvPR5Ov2TjYOQF-59" value="" style="rounded=0;whiteSpace=wrap;html=1;fillColor=#0008FF;" vertex="1" parent="1">
          <mxGeometry x="900" y="575" width="190" height="60" as="geometry" />
        </mxCell>
        <mxCell id="bBLoMzVvPR5Ov2TjYOQF-60" value="Welcome, &lt;br&gt;Hector Palma" style="text;html=1;align=center;verticalAlign=middle;whiteSpace=wrap;rounded=0;" vertex="1" parent="1">
          <mxGeometry x="980" y="577.5" width="100" height="55" as="geometry" />
        </mxCell>
        <mxCell id="bBLoMzVvPR5Ov2TjYOQF-61" value="" style="html=1;verticalLabelPosition=bottom;align=center;labelBackgroundColor=#ffffff;verticalAlign=top;strokeWidth=2;strokeColor=#0080F0;shadow=0;dashed=0;shape=mxgraph.ios7.icons.user;" vertex="1" parent="1">
          <mxGeometry x="910" y="582.5" width="50" height="50" as="geometry" />
        </mxCell>
        <mxCell id="bBLoMzVvPR5Ov2TjYOQF-64" value="" style="rounded=0;whiteSpace=wrap;html=1;fillColor=#725CFF;" vertex="1" parent="1">
          <mxGeometry x="900" y="646.5" width="190" height="70" as="geometry" />
        </mxCell>
        <mxCell id="bBLoMzVvPR5Ov2TjYOQF-65" value="&lt;p&gt;&lt;br&gt;&lt;font style=&quot;font-size: 18px;&quot;&gt;Presence&lt;/font&gt;&lt;br&gt;&lt;/p&gt;" style="text;html=1;align=center;verticalAlign=middle;whiteSpace=wrap;rounded=0;" vertex="1" parent="1">
          <mxGeometry x="900" y="646.5" width="180" height="60" as="geometry" />
        </mxCell>
        <mxCell id="bBLoMzVvPR5Ov2TjYOQF-66" value="" style="sketch=0;outlineConnect=0;fontColor=#232F3E;gradientColor=none;fillColor=#232F3D;strokeColor=none;dashed=0;verticalLabelPosition=bottom;verticalAlign=top;align=center;html=1;fontSize=12;fontStyle=0;aspect=fixed;pointerEvents=1;shape=mxgraph.aws4.camera2;" vertex="1" parent="1">
          <mxGeometry x="956" y="757.5" width="78" height="62" as="geometry" />
        </mxCell>
        <mxCell id="bBLoMzVvPR5Ov2TjYOQF-67" value="Capture your Face" style="text;html=1;align=center;verticalAlign=middle;whiteSpace=wrap;rounded=0;" vertex="1" parent="1">
          <mxGeometry x="935" y="836.5" width="120" height="31" as="geometry" />
        </mxCell>
        <mxCell id="bBLoMzVvPR5Ov2TjYOQF-68" value="" style="rounded=1;whiteSpace=wrap;html=1;" vertex="1" parent="1">
          <mxGeometry x="1131" y="530" width="230" height="380" as="geometry" />
        </mxCell>
        <mxCell id="bBLoMzVvPR5Ov2TjYOQF-69" value="" style="rounded=0;whiteSpace=wrap;html=1;fillColor=#FFFFFF;" vertex="1" parent="1">
          <mxGeometry x="1151" y="550" width="190" height="340" as="geometry" />
        </mxCell>
        <mxCell id="bBLoMzVvPR5Ov2TjYOQF-70" value="Presence Page" style="text;html=1;align=center;verticalAlign=middle;whiteSpace=wrap;rounded=0;" vertex="1" parent="1">
          <mxGeometry x="1151" y="550" width="190" height="30" as="geometry" />
        </mxCell>
        <mxCell id="bBLoMzVvPR5Ov2TjYOQF-76" value="" style="sketch=0;outlineConnect=0;fontColor=#232F3E;gradientColor=none;fillColor=#232F3D;strokeColor=none;dashed=0;verticalLabelPosition=bottom;verticalAlign=top;align=center;html=1;fontSize=12;fontStyle=0;aspect=fixed;pointerEvents=1;shape=mxgraph.aws4.camera2;" vertex="1" parent="1">
          <mxGeometry x="1227.76" y="825" width="36.48" height="29" as="geometry" />
        </mxCell>
        <mxCell id="bBLoMzVvPR5Ov2TjYOQF-77" value="Capture your Face" style="text;html=1;align=center;verticalAlign=middle;whiteSpace=wrap;rounded=0;" vertex="1" parent="1">
          <mxGeometry x="1186" y="854" width="120" height="31" as="geometry" />
        </mxCell>
        <mxCell id="bBLoMzVvPR5Ov2TjYOQF-78" value="" style="shape=image;html=1;verticalAlign=top;verticalLabelPosition=bottom;labelBackgroundColor=#ffffff;imageAspect=0;aspect=fixed;image=https://cdn1.iconfinder.com/data/icons/systemui/21/capture-128.png" vertex="1" parent="1">
          <mxGeometry x="1143.5" y="590" width="205" height="205" as="geometry" />
        </mxCell>
        <mxCell id="bBLoMzVvPR5Ov2TjYOQF-81" value="" style="rounded=1;whiteSpace=wrap;html=1;" vertex="1" parent="1">
          <mxGeometry x="1410" y="530" width="230" height="380" as="geometry" />
        </mxCell>
        <mxCell id="bBLoMzVvPR5Ov2TjYOQF-82" value="" style="rounded=0;whiteSpace=wrap;html=1;fillColor=#FFFFFF;" vertex="1" parent="1">
          <mxGeometry x="1430" y="550" width="190" height="340" as="geometry" />
        </mxCell>
        <mxCell id="bBLoMzVvPR5Ov2TjYOQF-83" value="Presence Page" style="text;html=1;align=center;verticalAlign=middle;whiteSpace=wrap;rounded=0;" vertex="1" parent="1">
          <mxGeometry x="1430" y="550" width="190" height="30" as="geometry" />
        </mxCell>
        <mxCell id="bBLoMzVvPR5Ov2TjYOQF-91" value="" style="shape=image;html=1;verticalAlign=top;verticalLabelPosition=bottom;labelBackgroundColor=#ffffff;imageAspect=0;aspect=fixed;image=https://cdn1.iconfinder.com/data/icons/systemui/21/capture-128.png" vertex="1" parent="1">
          <mxGeometry x="1430" y="597" width="205" height="205" as="geometry" />
        </mxCell>
        <mxCell id="bBLoMzVvPR5Ov2TjYOQF-92" value="" style="rounded=0;whiteSpace=wrap;html=1;fillColor=#ff9999;" vertex="1" parent="1">
          <mxGeometry x="1430" y="802" width="190" height="48" as="geometry" />
        </mxCell>
        <mxCell id="bBLoMzVvPR5Ov2TjYOQF-93" value="Failed to Presence" style="text;html=1;align=center;verticalAlign=middle;whiteSpace=wrap;rounded=0;" vertex="1" parent="1">
          <mxGeometry x="1470" y="811" width="110" height="30" as="geometry" />
        </mxCell>
        <mxCell id="bBLoMzVvPR5Ov2TjYOQF-94" value="&lt;u&gt;Try Again?&lt;/u&gt;" style="text;html=1;align=center;verticalAlign=middle;whiteSpace=wrap;rounded=0;" vertex="1" parent="1">
          <mxGeometry x="1465" y="850" width="120" height="20" as="geometry" />
        </mxCell>
        <mxCell id="bBLoMzVvPR5Ov2TjYOQF-95" value="&lt;u&gt;Return&amp;nbsp;&lt;/u&gt;" style="text;html=1;align=center;verticalAlign=middle;whiteSpace=wrap;rounded=0;" vertex="1" parent="1">
          <mxGeometry x="1465" y="868.5" width="120" height="20" as="geometry" />
        </mxCell>
      </root>
    </mxGraphModel>
  </diagram>
</mxfile>
